<?xml version="1.0" standalone="no"?>
<!DOCTYPE svg PUBLIC "-//W3C//DTD SVG 20010904//EN"
 "http://www.w3.org/TR/2001/REC-SVG-20010904/DTD/svg10.dtd">
<svg version="1.0" xmlns="http://www.w3.org/2000/svg"
 width="500.000000pt" height="500.000000pt" viewBox="0 0 500.000000 500.000000"
 preserveAspectRatio="xMidYMid meet">
<metadata>
Created by potrace 1.11, written by Peter Selinger 2001-2013
</metadata>
<g transform="translate(0.000000,500.000000) scale(0.100000,-0.100000)"
fill="#000000" stroke="none">
<path d="M2244 4697 c-28 -7 -88 -33 -135 -57 -316 -162 -1560 -816 -1586
-833 -38 -26 -63 -66 -63 -101 0 -62 39 -85 830 -499 415 -217 791 -413 836
-435 118 -59 237 -76 356 -51 66 14 51 7 968 486 791 414 830 437 830 499 0
35 -25 75 -63 101 -54 36 -1639 863 -1687 880 -60 21 -221 26 -286 10z m30
-398 c133 -67 136 -70 94 -100 -18 -13 -80 -64 -137 -114 -57 -49 -153 -130
-213 -178 -60 -49 -107 -91 -104 -94 3 -3 52 10 108 30 57 20 177 59 268 87
91 28 223 71 294 95 l130 43 100 -50 101 -51 -38 -31 c-22 -17 -103 -87 -181
-156 -78 -69 -172 -149 -209 -179 -37 -30 -65 -56 -63 -59 3 -2 44 10 93 28
48 17 171 58 273 91 102 33 223 74 270 91 168 60 146 61 286 -12 68 -36 120
-68 116 -72 -4 -3 -59 -22 -122 -41 -63 -19 -180 -56 -260 -81 -80 -26 -237
-75 -350 -111 -113 -35 -248 -78 -300 -95 -52 -18 -144 -47 -204 -65 l-109
-34 -91 46 c-151 76 -145 63 -62 141 39 38 107 99 151 137 118 101 232 209
215 203 -8 -3 -78 -24 -155 -47 -77 -23 -207 -64 -290 -91 -82 -27 -189 -60
-237 -75 l-88 -26 -79 41 c-130 68 -129 52 -1 166 61 54 162 144 223 199 62
56 159 142 217 193 58 50 137 120 175 156 39 36 72 65 74 66 3 0 50 -23 105
-51z"/>
<path d="M4325 3443 c-11 -2 -393 -194 -849 -426 -814 -414 -831 -423 -898
-488 -48 -47 -77 -86 -100 -135 l-33 -69 -3 -973 c-3 -1075 -6 -1011 61 -1053
72 -45 62 -49 970 413 813 414 832 424 899 489 48 47 77 86 100 135 l33 69 3
976 2 975 -23 35 c-35 53 -87 69 -162 52z m-425 -1380 c135 -252 246 -462 248
-468 1 -8 -210 -125 -258 -143 -5 -2 -32 42 -60 97 -27 56 -54 101 -58 101 -4
0 -116 -55 -249 -122 l-243 -123 -53 -160 -53 -160 -129 -67 c-72 -36 -131
-65 -133 -63 -3 2 70 216 253 740 40 116 110 316 154 445 45 129 84 241 89
248 7 13 218 129 237 130 6 1 120 -204 255 -455z"/>
<path d="M3450 1915 c-40 -119 -71 -218 -69 -220 3 -2 71 30 152 71 l147 75
-73 144 c-39 80 -74 145 -78 145 -3 0 -39 -97 -79 -215z"/>
<path d="M730 2138 l0 -753 146 -75 c80 -41 149 -76 155 -78 5 -2 9 95 9 247
0 138 2 251 5 251 3 0 76 -36 163 -79 190 -95 279 -124 382 -125 123 -1 195
47 236 155 27 70 24 235 -5 329 -64 210 -193 378 -391 513 -60 41 -678 367
-695 367 -3 0 -5 -339 -5 -752z m476 225 c166 -85 250 -156 293 -246 52 -107
35 -224 -36 -253 -54 -23 -110 -7 -278 79 l-140 72 -3 213 c-1 116 2 212 6
212 5 0 76 -35 158 -77z"/>
</g>
</svg>
